<svg width="724" height="724" viewBox="0 0 724 724" fill="none" xmlns="http://www.w3.org/2000/svg">
<path d="M96.3209 137.907C101.191 132.086 106.517 126.663 112.249 121.689C153.488 85.9818 212.378 79.1762 263.29 95.1911C314.201 111.206 357.786 147.536 393.06 189.876C409.176 209.236 424.496 230.536 446.071 242.366C473.887 257.628 506.105 254.428 536.18 258.916C645.533 275.25 681.168 428.608 606.451 508.421C576.999 539.872 535.89 557.653 496.91 570.932C442.929 589.379 386.457 601.47 329.825 599.211C273.194 596.952 216.186 579.663 170.545 543.738C110.815 496.664 74.905 421.136 59.9472 343.48C52.3741 304.195 49.6953 263.304 57.196 223.991C63.2341 192.395 76.2806 161.814 96.3209 137.907Z" fill="#6489D1"/>
<path opacity="0.7" d="M536.18 258.917C506.105 254.428 473.916 257.628 446.071 242.366C424.496 230.536 409.176 209.236 393.06 189.876C357.786 147.537 314.216 111.206 263.29 95.1915C212.364 79.1766 153.488 85.9822 112.235 121.632C106.502 126.606 101.176 132.029 96.3065 137.85C76.2662 161.756 63.2197 192.338 57.2105 223.933C49.7099 263.246 52.3887 304.138 59.9617 343.422C74.9051 421.136 110.815 496.664 170.574 543.738C216.186 579.663 273.18 596.952 329.854 599.211C386.529 601.47 442.958 589.379 496.939 570.932C535.919 557.61 577.028 539.872 606.48 508.422C681.168 428.608 645.533 275.25 536.18 258.917Z" fill="#F9F9F7"/>
<path d="M364.244 173.456V178.524" stroke="#6489D1" stroke-width="3" stroke-linejoin="round"/>
<path d="M364.244 189.659V206.354" stroke="#6489D1" stroke-width="3" stroke-linejoin="round" stroke-dasharray="7.68 7.68"/>
<path d="M364.244 211.915V216.983H359.176" stroke="#6489D1" stroke-width="3" stroke-linejoin="round"/>
<path d="M348.939 216.983H190.296" stroke="#6489D1" stroke-width="3" stroke-linejoin="round" stroke-dasharray="7.07 7.07"/>
<path d="M185.185 216.983H180.117V222.051" stroke="#6489D1" stroke-width="3" stroke-linejoin="round"/>
<path d="M180.117 230.362V242.83" stroke="#6489D1" stroke-width="3" stroke-linejoin="round" stroke-dasharray="5.74 5.74"/>
<path d="M180.117 246.985V252.053" stroke="#6489D1" stroke-width="3" stroke-linejoin="round"/>
<path d="M205.848 197.522H226.424" stroke="#212529" stroke-linecap="round" stroke-linejoin="round"/>
<path d="M210.38 148.073C206.257 150.026 203 153.431 201.231 157.636C199.463 161.841 199.307 166.551 200.794 170.864C200.461 170.864 200.128 170.864 199.781 170.864C197.989 170.805 196.205 171.107 194.533 171.752C192.86 172.396 191.335 173.371 190.047 174.617C188.759 175.863 187.735 177.356 187.036 179.006C186.336 180.656 185.976 182.43 185.976 184.222C185.976 186.014 186.336 187.788 187.036 189.438C187.735 191.088 188.759 192.58 190.047 193.827C191.335 195.073 192.86 196.047 194.533 196.692C196.205 197.337 197.989 197.639 199.781 197.58" stroke="#212529" stroke-linecap="round" stroke-linejoin="round"/>
<path d="M250.91 132.463C244.79 130.538 238.184 130.87 232.289 133.399C226.393 135.928 221.6 140.487 218.778 146.248H218.344" stroke="#212529" stroke-linecap="round" stroke-linejoin="round"/>
<path d="M272.687 154.241C271.578 154.242 270.469 154.324 269.371 154.487C268.482 147.656 264.991 141.432 259.626 137.111" stroke="#212529" stroke-linecap="round" stroke-linejoin="round"/>
<path d="M239.34 197.522H272.644C275.492 197.533 278.315 196.982 280.949 195.9C283.584 194.818 285.979 193.226 287.997 191.216C290.015 189.206 291.616 186.818 292.709 184.187C293.802 181.557 294.364 178.737 294.364 175.889" stroke="#212529" stroke-linecap="round" stroke-linejoin="round"/>
<path d="M465.315 198.724H479.274" stroke="#212529" stroke-linecap="round" stroke-linejoin="round"/>
<path d="M468.385 165.173C466.223 166.189 464.395 167.798 463.113 169.813C461.831 171.828 461.148 174.166 461.145 176.555C461.148 177.944 461.378 179.323 461.825 180.638C461.599 180.623 461.371 180.623 461.145 180.638C458.741 180.638 456.435 181.593 454.735 183.293C453.035 184.993 452.08 187.298 452.08 189.702C452.08 192.107 453.035 194.412 454.735 196.112C456.435 197.812 458.741 198.767 461.145 198.767" stroke="#212529" stroke-linecap="round" stroke-linejoin="round"/>
<path d="M495.882 154.574C494.115 154.021 492.275 153.738 490.423 153.734C487.014 153.735 483.674 154.696 480.786 156.506C477.897 158.317 475.577 160.904 474.09 163.971H473.8" stroke="#212529" stroke-linecap="round" stroke-linejoin="round"/>
<path d="M510.666 169.416C509.911 169.418 509.156 169.471 508.407 169.575C507.809 164.95 505.442 160.736 501.804 157.818" stroke="#212529" stroke-linecap="round" stroke-linejoin="round"/>
<path d="M487.976 198.723H510.608C514.502 198.723 518.237 197.177 520.991 194.423C523.744 191.669 525.291 187.935 525.291 184.041" stroke="#212529" stroke-linecap="round" stroke-linejoin="round"/>
<path d="M412.767 102.678C411.022 102.675 409.279 102.806 407.554 103.069C406.403 94.0855 402.378 85.7154 396.08 79.2071C389.782 72.6987 381.548 68.4009 372.608 66.9548C363.668 65.5087 354.499 66.9918 346.471 71.1829C338.442 75.374 331.984 82.0484 328.059 90.2104C327.827 90.2104 327.61 90.2104 327.378 90.2104C322.739 90.2151 318.168 91.3277 314.045 93.4556C309.923 95.5835 306.368 98.6652 303.677 102.444C300.986 106.223 299.236 110.59 298.573 115.182C297.91 119.774 298.354 124.457 299.866 128.843C299.345 128.843 298.809 128.756 298.274 128.756C292.705 128.756 287.365 130.968 283.427 134.906C279.49 138.843 277.278 144.184 277.278 149.752C277.278 155.321 279.49 160.661 283.427 164.599C287.365 168.536 292.705 170.748 298.274 170.748H412.825C421.85 170.748 430.505 167.163 436.886 160.782C443.268 154.4 446.853 145.745 446.853 136.72C446.853 127.695 443.268 119.04 436.886 112.659C430.505 106.277 421.85 102.692 412.825 102.692L412.767 102.678Z" fill="#F9F9F7" stroke="#212529" stroke-miterlimit="10"/>
<path d="M364.418 137.14V112.799" stroke="#212529" stroke-linecap="round" stroke-linejoin="round"/>
<path d="M377.928 121.082L364.418 107.572L350.923 121.082" stroke="#212529" stroke-linecap="round" stroke-linejoin="round"/>
<path d="M364.418 142.585V148.073" stroke="#212529" stroke-linecap="round" stroke-linejoin="round"/>
<path d="M364.418 154.487V158.686" stroke="#212529" stroke-linecap="round" stroke-linejoin="round"/>
<path d="M321.022 640.508H292.337C290.733 640.561 289.139 640.249 287.674 639.597C286.208 638.944 284.909 637.968 283.875 636.742C282.841 635.516 282.099 634.071 281.703 632.516C281.308 630.961 281.27 629.337 281.593 627.766L292.699 558.146C293.337 554.648 295.156 551.474 297.851 549.155C300.547 546.836 303.957 545.512 307.512 545.404H395.492" stroke="#212529" stroke-linecap="round" stroke-linejoin="round"/>
<path d="M304.992 526.087H330.767C331.549 526.089 332.313 526.326 332.958 526.768C333.604 527.209 334.102 527.835 334.387 528.563L337.456 536.455H392.046C394.719 536.456 397.324 537.295 399.495 538.853C401.666 540.412 403.295 542.611 404.151 545.143L407.221 545.404C408.824 545.351 410.419 545.663 411.884 546.315C413.35 546.968 414.648 547.944 415.683 549.17C416.717 550.396 417.459 551.841 417.855 553.396C418.25 554.951 418.288 556.575 417.965 558.146L406.888 627.766C406.245 631.262 404.425 634.433 401.73 636.751C399.035 639.069 395.628 640.395 392.075 640.508H337.645" stroke="#212529" stroke-linecap="round" stroke-linejoin="round"/>
<path d="M279.565 579.663V549.255C279.572 546.033 280.799 542.934 283 540.58C285.2 538.227 288.21 536.794 291.425 536.571L294.538 528.578C294.821 527.848 295.318 527.221 295.964 526.779C296.61 526.338 297.375 526.101 298.158 526.102" stroke="#212529" stroke-linecap="round" stroke-linejoin="round"/>
<path d="M292.337 640.508C288.95 640.508 285.701 639.163 283.306 636.768C280.911 634.373 279.565 631.124 279.565 627.737V599.472" stroke="#212529" stroke-linecap="round" stroke-linejoin="round"/>
<path d="M565.444 640.508C563.735 640.508 562.096 639.829 560.888 638.621C559.679 637.413 559 635.774 559 634.065V594.462C559.004 592.837 559.622 591.273 560.732 590.086C561.842 588.898 563.36 588.175 564.981 588.062L566.559 584.036C566.7 583.666 566.95 583.348 567.275 583.123C567.601 582.898 567.988 582.777 568.383 582.777H584.833C585.229 582.777 585.615 582.898 585.941 583.123C586.267 583.348 586.516 583.666 586.657 584.036L588.207 588.018H615.719C617.063 588.014 618.375 588.431 619.471 589.21C620.566 589.989 621.391 591.091 621.829 592.362" fill="#6489D1"/>
<mask id="mask0_1_4089" style="mask-type:luminance" maskUnits="userSpaceOnUse" x="559" y="582" width="63" height="59">
<path d="M565.444 640.508C563.735 640.508 562.096 639.829 560.888 638.621C559.679 637.413 559 635.774 559 634.065V594.462C559.004 592.837 559.622 591.273 560.732 590.086C561.842 588.898 563.36 588.175 564.981 588.062L566.559 584.036C566.7 583.666 566.95 583.348 567.275 583.123C567.601 582.898 567.988 582.777 568.383 582.777H584.833C585.229 582.777 585.615 582.898 585.941 583.123C586.267 583.348 586.516 583.666 586.657 584.036L588.207 588.018H615.719C617.063 588.014 618.375 588.431 619.471 589.21C620.566 589.989 621.391 591.091 621.829 592.362" fill="white"/>
</mask>
<g mask="url(#mask0_1_4089)">
<path opacity="0.3" d="M565.444 640.508C563.735 640.508 562.096 639.829 560.888 638.621C559.679 637.413 559 635.774 559 634.065V594.462C559.004 592.837 559.622 591.273 560.732 590.086C561.842 588.898 563.36 588.175 564.981 588.062L566.559 584.036C566.7 583.666 566.95 583.348 567.275 583.123C567.601 582.898 567.988 582.777 568.383 582.777H584.833C585.229 582.777 585.615 582.898 585.941 583.123C586.267 583.348 586.516 583.666 586.657 584.036L588.207 588.018H615.719C617.063 588.014 618.375 588.431 619.471 589.21C620.566 589.989 621.391 591.091 621.829 592.362" fill="#212529"/>
</g>
<path d="M565.541 643.528C563.832 643.528 562.193 642.849 560.985 641.64C559.776 640.432 559.098 638.793 559.098 637.084V597.481C559.101 595.856 559.72 594.293 560.829 593.105C561.939 591.918 563.457 591.195 565.078 591.081L566.656 587.056C566.797 586.686 567.047 586.367 567.372 586.142C567.698 585.917 568.085 585.797 568.481 585.796H584.93C585.326 585.797 585.712 585.917 586.038 586.142C586.364 586.367 586.614 586.686 586.754 587.056L588.304 591.038H615.816C617.16 591.034 618.472 591.451 619.568 592.23C620.664 593.009 621.488 594.111 621.926 595.382" stroke="#212529" stroke-linecap="round" stroke-linejoin="round"/>
<path d="M565.541 643.528H615.845C617.638 643.474 619.359 642.806 620.719 641.636C622.079 640.465 622.996 638.864 623.316 637.099L628.92 601.97C629.085 601.177 629.068 600.358 628.87 599.573C628.672 598.788 628.297 598.058 627.776 597.439C627.254 596.819 626.599 596.327 625.859 595.998C625.119 595.669 624.314 595.513 623.505 595.541H573.201C571.409 595.598 569.69 596.267 568.33 597.436C566.971 598.606 566.053 600.206 565.73 601.97L560.126 637.099C559.961 637.891 559.978 638.711 560.176 639.496C560.374 640.281 560.749 641.011 561.27 641.63C561.792 642.249 562.447 642.742 563.187 643.071C563.927 643.399 564.732 643.556 565.541 643.528Z" fill="#6489D1" stroke="#212529" stroke-linecap="round" stroke-linejoin="round"/>
<path d="M272.354 640.508C270.645 640.508 269.006 639.829 267.798 638.621C266.59 637.413 265.911 635.774 265.911 634.065V594.462C265.911 592.836 266.528 591.27 267.638 590.082C268.749 588.894 270.269 588.172 271.891 588.062L273.455 584.036C273.602 583.667 273.855 583.351 274.182 583.126C274.51 582.902 274.897 582.78 275.294 582.777H291.743C292.139 582.777 292.525 582.898 292.851 583.123C293.177 583.348 293.427 583.666 293.568 584.036L295.117 588.018H322.629C323.973 588.014 325.285 588.431 326.381 589.21C327.477 589.989 328.301 591.091 328.739 592.362" fill="#6489D1"/>
<mask id="mask1_1_4089" style="mask-type:luminance" maskUnits="userSpaceOnUse" x="265" y="582" width="64" height="59">
<path d="M272.354 640.508C270.645 640.508 269.006 639.829 267.798 638.621C266.59 637.413 265.911 635.774 265.911 634.065V594.462C265.911 592.836 266.528 591.27 267.638 590.082C268.749 588.894 270.269 588.172 271.891 588.062L273.455 584.036C273.602 583.667 273.855 583.351 274.182 583.126C274.51 582.902 274.897 582.78 275.294 582.777H291.743C292.139 582.777 292.525 582.898 292.851 583.123C293.177 583.348 293.427 583.666 293.568 584.036L295.117 588.018H322.629C323.973 588.014 325.285 588.431 326.381 589.21C327.477 589.989 328.301 591.091 328.739 592.362" fill="white"/>
</mask>
<g mask="url(#mask1_1_4089)">
<path opacity="0.3" d="M272.354 640.508C270.645 640.508 269.006 639.829 267.798 638.621C266.59 637.413 265.911 635.774 265.911 634.065V594.462C265.911 592.836 266.528 591.27 267.638 590.082C268.749 588.894 270.269 588.172 271.891 588.062L273.455 584.036C273.602 583.667 273.855 583.351 274.182 583.126C274.51 582.902 274.897 582.78 275.294 582.777H291.743C292.139 582.777 292.525 582.898 292.851 583.123C293.177 583.348 293.427 583.666 293.568 584.036L295.117 588.018H322.629C323.973 588.014 325.285 588.431 326.381 589.21C327.477 589.989 328.301 591.091 328.739 592.362" fill="#212529"/>
</g>
<path d="M272.354 640.508C270.645 640.508 269.006 639.829 267.798 638.621C266.59 637.413 265.911 635.774 265.911 634.065V594.462C265.911 592.836 266.528 591.27 267.638 590.082C268.749 588.894 270.269 588.172 271.891 588.062L273.455 584.036C273.602 583.667 273.855 583.351 274.182 583.126C274.51 582.902 274.897 582.78 275.294 582.777H291.743C292.139 582.777 292.525 582.898 292.851 583.123C293.177 583.348 293.427 583.666 293.568 584.036L295.117 588.018H322.629C323.973 588.014 325.285 588.431 326.381 589.21C327.477 589.989 328.301 591.091 328.739 592.362" stroke="#212529" stroke-linecap="round" stroke-linejoin="round"/>
<path d="M272.354 640.508H322.658C324.454 640.458 326.178 639.791 327.54 638.621C328.903 637.45 329.823 635.847 330.144 634.079L335.748 598.951C335.913 598.158 335.896 597.338 335.697 596.553C335.499 595.768 335.125 595.039 334.603 594.419C334.082 593.8 333.426 593.307 332.686 592.979C331.946 592.65 331.141 592.494 330.332 592.522H280C278.208 592.581 276.49 593.251 275.131 594.42C273.772 595.589 272.854 597.188 272.528 598.951L266.924 634.079C266.762 634.873 266.781 635.693 266.982 636.478C267.182 637.263 267.557 637.992 268.08 638.611C268.603 639.23 269.259 639.722 269.999 640.051C270.74 640.379 271.545 640.536 272.354 640.508Z" fill="#6489D1" stroke="#212529" stroke-linecap="round" stroke-linejoin="round"/>
<path d="M449.387 620.048C449.387 620.048 451.675 633.992 449.387 640.508H403.239C403.239 640.508 401.284 635.629 403.239 632.559C405.194 629.489 419.819 627.708 424.365 623.552C427.854 620.086 431.01 616.299 433.792 612.243L449.387 620.048Z" fill="#6489D1" stroke="#212529" stroke-linecap="round" stroke-linejoin="round"/>
<path d="M402.37 638.061H449.995L450.4 640.508H402.37V638.061Z" fill="#F9F9F7" stroke="#212529" stroke-linecap="round" stroke-linejoin="round"/>
<path d="M438.295 618.296C438.295 618.296 433.951 619.339 433.459 619.498C432.967 619.657 428.753 626.173 424.525 627.303C420.297 628.432 416.068 628.229 416.72 630.286" stroke="#212529" stroke-linecap="round" stroke-linejoin="round"/>
<path d="M428.68 618.354L433.633 622.003" stroke="#212529" stroke-linecap="round" stroke-linejoin="round"/>
<path d="M426.393 621.54L431.157 625.044" stroke="#212529" stroke-linecap="round" stroke-linejoin="round"/>
<path d="M423.337 624.349L427.479 628.345" stroke="#212529" stroke-linecap="round" stroke-linejoin="round"/>
<path d="M419.167 626.376L420.948 630.343" stroke="#212529" stroke-linecap="round" stroke-linejoin="round"/>
<path d="M450.14 626.376C444.769 625.962 439.371 626.662 434.284 628.432C425.987 631.328 423.135 633.877 423.337 634.644C423.54 635.412 424.525 637.67 424.525 637.67H428.68C428.68 637.67 427.232 635.021 427.479 634.644C427.725 634.268 441.959 628.736 450.14 629.706V626.376Z" fill="#212529"/>
<path d="M527.622 640.508C527.622 640.508 529.389 633.717 527.318 631.212C523.582 626.694 527.767 622.901 524.017 621.322L522.453 623.147C522.149 621.308 523.018 615.675 516.067 614.951C507.669 614.053 507.51 620.178 507.046 622.191L507.191 619.382C503.6 619.382 505.468 622.959 500.023 628.809C498.606 630.388 497.526 632.24 496.851 634.253C496.176 636.265 495.92 638.394 496.099 640.508H527.622Z" fill="#6489D1" stroke="#212529" stroke-linecap="round" stroke-linejoin="round"/>
<path d="M558.059 382.185C561.94 384.444 571.946 405.759 566.11 448.055C560.275 490.351 542.783 573.075 539.843 585.731C536.904 598.386 526.638 628.809 526.638 628.809C526.638 628.809 522.728 615.603 503.904 622.64C503.744 622.701 503.571 622.717 503.402 622.688C503.234 622.658 503.076 622.584 502.946 622.473C502.816 622.363 502.718 622.219 502.662 622.057C502.607 621.895 502.595 621.722 502.63 621.554L506.786 599.993C506.786 599.993 507.075 584.225 508.422 580.272C513.533 565.386 516.096 507.872 517.79 499.835C519.485 491.799 516.154 468.718 516.154 468.718C516.154 468.718 492.537 525.19 491.77 530.779C491.002 536.368 476.595 559.42 476.595 559.42L474.046 580.648C474.046 580.648 454.875 613.489 451.501 623.292L428.68 618.296L429.318 602.064L435.457 599.95L446.201 563.04C449.61 550.251 453.788 537.678 458.712 525.392C463.794 512.563 478.202 462.853 478.202 462.853C482.676 457.988 486.89 431.084 486.89 431.084L493.768 397.186L558.059 382.185Z" fill="#212529"/>
<path d="M462.231 292.496L415.315 327.827L385.168 280.203L373.874 281.651C373.874 281.651 396.361 343.075 408.799 349.2C421.238 355.325 468.167 321.355 468.167 321.355" fill="#F9F9F7"/>
<path d="M462.231 292.496L415.315 327.827L385.168 280.203L373.874 281.651C373.874 281.651 396.361 343.075 408.799 349.2C421.238 355.325 468.167 321.355 468.167 321.355" stroke="#212529" stroke-linecap="round" stroke-linejoin="round"/>
<path d="M472.54 285.43C472.54 285.43 458.958 290.165 449.85 298.056C440.742 305.948 426.219 317.735 426.219 317.735C426.219 317.735 434.4 337.384 443.899 345.391L464.171 337.283L472.54 285.43Z" fill="#6489D1"/>
<mask id="mask2_1_4089" style="mask-type:luminance" maskUnits="userSpaceOnUse" x="426" y="285" width="47" height="61">
<path d="M472.54 285.43C472.54 285.43 458.958 290.165 449.85 298.056C440.742 305.948 426.219 317.735 426.219 317.735C426.219 317.735 434.4 337.384 443.899 345.391L464.171 337.283L472.54 285.43Z" fill="white"/>
</mask>
<g mask="url(#mask2_1_4089)">
<path opacity="0.4" d="M443.769 345.29L451.183 338.702C446.057 336.979 445.463 326.524 448.287 329.536C450.471 331.523 453.136 332.906 456.019 333.547C453.771 327.081 453.008 320.192 453.789 313.391C455.37 317.926 456.671 322.553 457.684 327.248C458.625 331.882 462.028 334.995 463.476 336.646L472.468 285.43C472.468 285.43 458.886 290.165 449.778 298.056C440.67 305.948 426.147 317.735 426.147 317.735C426.147 317.735 434.4 337.138 443.769 345.29Z" fill="#F9F9F7"/>
</g>
<path d="M472.54 285.43C472.54 285.43 458.958 290.165 449.85 298.056C440.742 305.948 426.219 317.735 426.219 317.735C426.219 317.735 434.4 337.384 443.899 345.391L464.171 337.283L472.54 285.43Z" stroke="#212529" stroke-linecap="round" stroke-linejoin="round"/>
<path d="M464.127 337.283C472.019 356.599 484.399 380.723 484.399 380.723L489.858 407.641C489.858 407.641 510.362 423.265 533.878 416.705C561.39 409.031 565.893 391.612 565.893 391.612L555.409 370.529C551.818 350.257 547.127 302.473 530.982 291.482C514.836 280.492 487.122 279.609 475.958 284.04C466.01 287.978 460.493 290.976 457.785 294.61" fill="#6489D1"/>
<mask id="mask3_1_4089" style="mask-type:luminance" maskUnits="userSpaceOnUse" x="457" y="281" width="109" height="138">
<path d="M464.127 337.283C472.019 356.599 484.399 380.723 484.399 380.723L489.858 407.641C489.858 407.641 510.362 423.265 533.878 416.705C561.39 409.031 565.893 391.612 565.893 391.612L555.409 370.529C551.818 350.257 547.127 302.473 530.982 291.482C514.836 280.492 487.122 279.609 475.958 284.04C466.01 287.978 460.493 290.976 457.785 294.61" fill="white"/>
</mask>
<g mask="url(#mask3_1_4089)">
<path opacity="0.4" d="M550.052 398.2C525.19 406.236 527.941 400.488 533.631 390.468C538.772 381.403 535.079 370.818 535.21 367.966C534.095 370.167 529.867 376.654 524.625 379.101C517.877 382.359 520.281 383.445 526.189 372.136C529.945 364.565 532.458 356.44 533.631 348.07C527 341.482 521.772 325.409 521.772 325.409L543.492 312.102C540.292 302.791 536.252 295.175 530.909 291.584C514.75 280.651 487.049 279.71 475.885 284.141C465.937 288.08 460.421 291.077 457.713 294.712L464.113 337.355C472.005 356.671 484.385 380.795 484.385 380.795L489.844 407.713C489.844 407.713 510.348 423.337 533.863 416.778C561.375 409.103 565.878 391.684 565.878 391.684L565.487 390.873C560.676 393.965 555.489 396.427 550.052 398.2Z" fill="#F9F9F7"/>
</g>
<path d="M464.127 337.283C472.019 356.599 484.399 380.723 484.399 380.723L489.858 407.641C489.858 407.641 510.362 423.265 533.878 416.705C561.39 409.031 565.893 391.612 565.893 391.612L555.409 370.529C551.818 350.257 547.127 302.473 530.982 291.482C514.836 280.492 487.122 279.609 475.958 284.04C466.01 287.978 460.493 290.976 457.785 294.61" stroke="#212529" stroke-linecap="round" stroke-linejoin="round"/>
<path d="M502.036 287.804C502.036 287.804 495.983 299.041 485.225 297.94C476.276 297.057 476.537 289.846 476.537 289.846C477.816 288.773 478.753 287.348 479.23 285.748C479.481 284.889 479.575 283.991 479.505 283.098C479.36 280.869 478.231 278.146 475.161 275.033L475.016 274.888C474.399 274.289 473.868 273.607 473.438 272.861C468.5 264.173 485.732 254.341 498.735 261.567C498.706 261.625 488.628 269.4 502.036 287.804Z" fill="#F9F9F7" stroke="#212529" stroke-linecap="round" stroke-linejoin="round"/>
<path d="M483.038 272.557C483.038 272.557 482.792 279.319 479.505 283.156C479.36 280.927 478.231 278.204 475.161 275.091C476.139 274.019 477.381 273.221 478.763 272.776C480.144 272.332 481.618 272.256 483.038 272.557Z" fill="#212529"/>
<path d="M500.747 253.27C505.613 232.375 495.52 223.325 488.903 220.574C478.303 216.23 464.518 223.093 461.391 234.692C458.263 246.29 461.072 248.955 460.927 253.704C460.826 257.035 458.77 258.671 461.043 267.026C462.491 272.543 465.011 281.39 474.452 279.812C477.34 279.296 480.142 278.379 482.778 277.089" fill="#F9F9F7"/>
<path d="M500.747 253.27C505.613 232.375 495.52 223.325 488.903 220.574C478.303 216.23 464.518 223.093 461.391 234.692C458.263 246.29 461.072 248.955 460.927 253.704C460.826 257.035 458.77 258.671 461.043 267.026C462.491 272.543 465.011 281.39 474.452 279.812C477.34 279.296 480.142 278.379 482.778 277.089" stroke="#212529" stroke-linecap="round" stroke-linejoin="round"/>
<path d="M473.235 246.479C473.235 246.479 477.145 245.031 479.245 249.621" stroke="#212529" stroke-linecap="round" stroke-linejoin="round"/>
<path d="M459.899 244.046C459.899 244.046 463.997 243.163 465.691 246.131" stroke="#212529" stroke-linecap="round" stroke-linejoin="round"/>
<path d="M466.792 252.053C466.792 252.053 462.752 259.033 462.824 259.988C463.027 262.971 466.821 261.625 466.821 261.625" stroke="#212529" stroke-linecap="round" stroke-linejoin="round"/>
<path d="M474.003 253.009C474.003 253.979 474.437 254.776 474.973 254.776C475.509 254.776 475.958 253.979 475.958 253.009C475.958 252.039 475.523 251.257 474.973 251.257C474.423 251.257 474.003 252.039 474.003 253.009Z" fill="#212529" stroke="#212529" stroke-linecap="round" stroke-linejoin="round"/>
<path d="M462.824 252.053C462.824 253.024 463.259 253.805 463.794 253.805C464.33 253.805 464.765 253.024 464.765 252.053C464.765 251.083 464.33 250.287 463.794 250.287C463.259 250.287 462.824 251.083 462.824 252.053Z" fill="#212529" stroke="#212529" stroke-linecap="round" stroke-linejoin="round"/>
<path d="M474.003 264.492C471.473 265.848 468.562 266.317 465.735 265.824" stroke="#212529" stroke-linecap="round" stroke-linejoin="round"/>
<path d="M473.235 265.288C473.11 266.137 472.716 266.924 472.112 267.534C471.508 268.143 470.724 268.544 469.876 268.677C469.501 268.73 469.119 268.703 468.756 268.598C468.392 268.493 468.055 268.312 467.766 268.067C467.477 267.822 467.244 267.519 467.081 267.177C466.918 266.835 466.829 266.463 466.821 266.085" stroke="#212529" stroke-linecap="round" stroke-linejoin="round"/>
<path d="M500.776 226.598C500.776 226.598 500.139 215.405 479.288 215.752C458.437 216.1 452.283 232.303 462.868 236.69C473.453 241.078 480.012 239.152 480.012 239.152C477.143 238.112 474.586 236.358 472.584 234.055C476.817 236.507 481.368 238.363 486.108 239.572C486.108 239.572 483.733 242.685 486.108 247.898C488.483 253.11 487.324 255.34 487.324 255.34C487.324 255.34 496.896 258.048 495.303 268.372C495.303 268.372 504.092 268.199 507.654 247.956C511.216 227.713 500.776 226.598 500.776 226.598Z" fill="#212529"/>
<path d="M488.903 256.933C488.903 256.933 492.725 249.795 496.736 251.532C500.747 253.27 497.953 261.799 494.478 264.564C491.002 267.33 488.903 264.564 488.903 264.564" fill="#F9F9F7"/>
<path d="M488.903 256.933C488.903 256.933 492.725 249.795 496.736 251.532C500.747 253.27 497.953 261.799 494.478 264.564C491.002 267.33 488.903 264.564 488.903 264.564" stroke="#212529" stroke-linecap="round" stroke-linejoin="round"/>
<path d="M453.832 313.391C456.163 322.788 457.38 330.188 464.127 337.283" stroke="#212529" stroke-linecap="round" stroke-linejoin="round"/>
<path d="M452.37 305.919C452.558 307.367 452.819 308.815 453.123 310.263" stroke="#212529" stroke-linecap="round" stroke-linejoin="round"/>
<path d="M533.631 331.404C533.631 331.404 561.578 361.609 568.383 360.48C575.189 359.35 578.824 348.201 577.318 345.116C575.812 342.032 550.689 312.768 550.689 312.768L533.631 331.404Z" fill="#F9F9F7" stroke="#212529" stroke-linecap="round" stroke-linejoin="round"/>
<path d="M523.235 303.009C520.513 312.493 519.369 322.701 523.901 330.651C526.174 337.457 539.395 343.944 543.927 349.62C558.161 346.145 564.199 328.074 564.199 328.074C564.199 328.074 556.032 316.388 547.721 304.08C539.409 291.772 522.989 287.211 522.989 287.211" fill="#6489D1"/>
<mask id="mask4_1_4089" style="mask-type:luminance" maskUnits="userSpaceOnUse" x="520" y="287" width="45" height="63">
<path d="M523.235 303.009C520.513 312.493 519.369 322.701 523.901 330.651C526.174 337.457 539.395 343.944 543.927 349.62C558.161 346.145 564.199 328.074 564.199 328.074C564.199 328.074 556.032 316.388 547.721 304.08C539.409 291.772 522.989 287.211 522.989 287.211" fill="white"/>
</mask>
<g mask="url(#mask4_1_4089)">
<path opacity="0.4" d="M523.235 303.009C520.513 312.493 519.369 322.701 523.901 330.651C526.174 337.457 539.395 343.944 543.927 349.62C558.161 346.145 564.199 328.074 564.199 328.074C564.199 328.074 556.032 316.388 547.721 304.08C539.409 291.772 522.989 287.211 522.989 287.211" fill="#F9F9F7"/>
</g>
<path d="M523.235 303.009C520.513 312.493 519.369 322.701 523.901 330.651C526.174 337.457 539.395 343.944 543.927 349.62C558.161 346.145 564.199 328.074 564.199 328.074C564.199 328.074 556.032 316.388 547.721 304.08C539.409 291.772 522.989 287.211 522.989 287.211" stroke="#212529" stroke-linecap="round" stroke-linejoin="round"/>
<path d="M385.472 280.738C385.472 280.738 380.824 269.835 377.928 266.432C375.032 263.029 372.136 260.64 371.325 260.524C369.312 260.292 362.753 263.927 362.753 263.927C362.753 263.927 362.753 265.983 366.301 265.679C366.301 265.679 361.175 268.879 360.929 271.384C360.682 273.889 363.825 277.437 364.491 278.812C364.543 278.998 364.639 279.168 364.771 279.308C364.903 279.448 365.067 279.555 365.248 279.619C365.43 279.683 365.624 279.702 365.815 279.675C366.006 279.648 366.187 279.576 366.344 279.464C366.344 279.464 371.875 286.994 377.219 287.515" fill="#F9F9F7"/>
<path d="M385.472 280.738C385.472 280.738 380.824 269.835 377.928 266.432C375.032 263.029 372.136 260.64 371.325 260.524C369.312 260.292 362.753 263.927 362.753 263.927C362.753 263.927 362.753 265.983 366.301 265.679C366.301 265.679 361.175 268.879 360.929 271.384C360.682 273.889 363.825 277.437 364.491 278.812C364.543 278.998 364.639 279.168 364.771 279.308C364.903 279.448 365.067 279.555 365.248 279.619C365.43 279.683 365.624 279.702 365.815 279.675C366.006 279.648 366.187 279.576 366.344 279.464C366.344 279.464 371.875 286.994 377.219 287.515" stroke="#212529" stroke-linecap="round" stroke-linejoin="round"/>
<path d="M366.344 279.464C366.818 278.884 367.074 278.157 367.068 277.408C367.068 277.408 369.283 277.408 369.399 275.468C369.399 275.468 372.657 275.67 371.296 271.529" stroke="#212529" stroke-linecap="round" stroke-linejoin="round"/>
<path d="M369.385 275.424C369.385 275.424 365.692 271.457 365.475 269.922" stroke="#212529" stroke-linecap="round" stroke-linejoin="round"/>
<path d="M367.054 277.365C367.054 277.365 362.999 273.745 363.216 272.108" stroke="#212529" stroke-linecap="round" stroke-linejoin="round"/>
<path d="M370.688 263.246C370.196 263.855 369.585 264.357 368.893 264.723C368.201 265.089 367.443 265.311 366.663 265.375" stroke="#212529" stroke-linecap="round" stroke-linejoin="round"/>
<path d="M369.834 264.144C370.52 264.684 371.15 265.29 371.716 265.954" stroke="#212529" stroke-linecap="round" stroke-linejoin="round"/>
<path d="M524.625 300.011C525.5 298.508 526.703 297.221 528.144 296.246" stroke="#212529" stroke-linecap="round" stroke-linejoin="round"/>
<path d="M496.07 638.061H528.317L527.622 640.508H496.099L496.07 638.061Z" fill="#F9F9F7" stroke="#212529" stroke-linecap="round" stroke-linejoin="round"/>
<path d="M506.424 628.519C506.424 628.519 517.008 625.015 522.12 629.402" stroke="#212529" stroke-linecap="round" stroke-linejoin="round"/>
<path d="M506.424 626.202C506.424 626.202 515.734 623.306 522.12 627.201" stroke="#212529" stroke-linecap="round" stroke-linejoin="round"/>
<path d="M506.974 623.929C506.974 623.929 515.734 620.627 522.12 625.145" stroke="#212529" stroke-linecap="round" stroke-linejoin="round"/>
<path d="M500.023 628.809L501.08 629.837C501.221 629.977 501.309 630.162 501.33 630.359C501.351 630.557 501.304 630.756 501.196 630.923C499.792 633.039 499.042 635.522 499.039 638.061H497.489C497.832 635.584 498.586 633.181 499.719 630.952L498.923 630.155L500.023 628.809Z" fill="#212529"/>
<path d="M536.904 365.186C535.08 367.734 510.29 397.664 498.706 396.043" stroke="#212529" stroke-linecap="round" stroke-linejoin="round"/>
<path d="M472.54 339.599C472.54 339.599 486.383 360.943 508.349 360.509" stroke="#212529" stroke-linecap="round" stroke-linejoin="round"/>
<g opacity="0.2">
<path d="M508.349 445.101C509.624 445.39 533.965 454.267 538.83 463.143" stroke="#F9F9F7" stroke-linecap="round" stroke-linejoin="round"/>
<path d="M514.272 457.988C513.055 459.711 502.688 492.074 498.344 500.95C494 509.826 479.027 549.646 475.596 551.934C475.596 551.934 471.005 575.102 468.138 578.853C465.271 582.603 450.458 612.243 450.458 612.243" stroke="#F9F9F7" stroke-linecap="round" stroke-linejoin="round"/>
<path d="M433.792 612.243L451.762 616.095" stroke="#F9F9F7" stroke-linecap="round" stroke-linejoin="round"/>
<path d="M506.974 614.169C506.974 614.169 521.352 612.881 526.232 618.354" stroke="#F9F9F7" stroke-linecap="round" stroke-linejoin="round"/>
<path d="M523.597 461.709C524.799 468.587 542.841 506.684 547.141 502.384" stroke="#F9F9F7" stroke-linecap="round" stroke-linejoin="round"/>
<path d="M516.603 465.156C516.603 465.156 514.489 455.7 516.487 451.4C517.255 449.763 501.023 455.411 495.578 454.122" stroke="#F9F9F7" stroke-linecap="round" stroke-linejoin="round"/>
<path d="M514.272 418.342C514.272 418.342 517.168 426.48 517.805 429.057C518.442 431.634 512.592 441.64 514.272 443.667" stroke="#F9F9F7" stroke-linecap="round" stroke-linejoin="round"/>
<path d="M553.73 410.725C553.73 410.725 557.741 416.865 557.741 421.397C557.741 425.929 563.171 427.913 563.171 427.913" stroke="#F9F9F7" stroke-linecap="round" stroke-linejoin="round"/>
<path d="M562.273 403.992C565.275 417.492 565.58 431.453 563.171 445.072C559.16 467.704 552.586 513.808 550.008 525.552C547.431 537.295 541.407 563.649 541.407 567.37C541.407 571.091 535.369 592.29 535.369 592.29" stroke="#F9F9F7" stroke-linecap="round" stroke-linejoin="round"/>
<path d="M536.832 560.246C535.963 560.246 519.933 575.71 515.922 575.985" stroke="#F9F9F7" stroke-linecap="round" stroke-linejoin="round"/>
<path d="M466.647 550.79C465.793 551.08 452.326 557.668 451.762 555.656" stroke="#F9F9F7" stroke-linecap="round" stroke-linejoin="round"/>
</g>
<path d="M534.095 431.258C532.392 431.394 530.704 430.848 529.404 429.74C528.103 428.632 527.296 427.053 527.159 425.35L523.973 385.863C523.849 384.243 524.34 382.636 525.35 381.364C526.359 380.091 527.812 379.247 529.418 379L530.663 374.873C530.768 374.484 530.989 374.137 531.297 373.878C531.605 373.619 531.985 373.461 532.386 373.425L548.792 372.136C549.187 372.103 549.582 372.19 549.926 372.387C550.27 372.583 550.546 372.88 550.718 373.237L552.586 377.074L580.098 374.873C581.441 374.764 582.784 375.079 583.94 375.772C585.095 376.465 586.005 377.503 586.541 378.739" fill="#6489D1"/>
<mask id="mask5_1_4089" style="mask-type:luminance" maskUnits="userSpaceOnUse" x="523" y="372" width="64" height="60">
<path d="M534.095 431.258C532.392 431.394 530.704 430.848 529.404 429.74C528.103 428.632 527.296 427.053 527.159 425.35L523.973 385.863C523.849 384.243 524.34 382.636 525.35 381.364C526.359 380.091 527.812 379.247 529.418 379L530.663 374.873C530.768 374.484 530.989 374.137 531.297 373.878C531.605 373.619 531.985 373.461 532.386 373.425L548.792 372.136C549.187 372.103 549.582 372.19 549.926 372.387C550.27 372.583 550.546 372.88 550.718 373.237L552.586 377.074L580.098 374.873C581.441 374.764 582.784 375.079 583.94 375.772C585.095 376.465 586.005 377.503 586.541 378.739" fill="white"/>
</mask>
<g mask="url(#mask5_1_4089)">
<path opacity="0.3" d="M534.095 431.258C532.392 431.394 530.704 430.848 529.404 429.74C528.103 428.632 527.296 427.053 527.159 425.35L523.973 385.863C523.849 384.243 524.34 382.636 525.35 381.364C526.359 380.091 527.812 379.247 529.418 379L530.663 374.873C530.768 374.484 530.989 374.137 531.297 373.878C531.605 373.619 531.985 373.461 532.386 373.425L548.792 372.136C549.187 372.103 549.582 372.19 549.926 372.387C550.27 372.583 550.546 372.88 550.718 373.237L552.586 377.074L580.098 374.873C581.441 374.764 582.784 375.079 583.94 375.772C585.095 376.465 586.005 377.503 586.541 378.739" fill="#212529"/>
</g>
<path d="M534.095 431.258C532.392 431.394 530.704 430.848 529.404 429.74C528.103 428.632 527.296 427.053 527.159 425.35L523.973 385.863C523.849 384.243 524.34 382.636 525.35 381.364C526.359 380.091 527.812 379.247 529.418 379L530.663 374.873C530.768 374.484 530.989 374.137 531.297 373.878C531.605 373.619 531.985 373.461 532.386 373.425L548.792 372.136C549.187 372.103 549.582 372.19 549.926 372.387C550.27 372.583 550.546 372.88 550.718 373.237L552.586 377.074L580.098 374.873C581.441 374.764 582.784 375.079 583.94 375.772C585.095 376.465 586.005 377.503 586.541 378.739" stroke="#212529" stroke-linecap="round" stroke-linejoin="round"/>
<path d="M534.095 431.258L584.239 427.16C586.021 426.958 587.681 426.153 588.942 424.878C590.204 423.603 590.992 421.936 591.175 420.152L593.941 384.676C594.038 383.873 593.952 383.058 593.689 382.293C593.426 381.528 592.994 380.833 592.424 380.259C591.854 379.685 591.162 379.247 590.399 378.979C589.636 378.711 588.822 378.619 588.018 378.71L537.874 382.75C536.091 382.949 534.43 383.754 533.168 385.029C531.906 386.304 531.119 387.973 530.938 389.758L528.173 425.22C528.064 426.028 528.141 426.851 528.398 427.625C528.655 428.399 529.086 429.105 529.657 429.687C530.228 430.269 530.925 430.714 531.694 430.986C532.463 431.258 533.284 431.351 534.095 431.258Z" fill="#6489D1" stroke="#212529" stroke-linecap="round" stroke-linejoin="round"/>
<path d="M572.887 339.339C578.071 344.32 580.749 348.215 580.373 364.404C579.996 380.592 577.057 403.992 575.146 419.92L561.375 422.02C561.375 422.02 563.533 397.114 561.375 380.723C559.029 362.825 560.883 352.805 563.04 351.517" fill="#F9F9F7"/>
<path d="M572.887 339.339C578.071 344.32 580.749 348.215 580.373 364.404C579.996 380.592 577.057 403.992 575.146 419.92L561.375 422.02C561.375 422.02 563.533 397.114 561.375 380.723C559.029 362.825 560.883 352.805 563.04 351.517" stroke="#212529" stroke-linecap="round" stroke-linejoin="round"/>
<path d="M562.157 408.148C561.868 412.796 553.397 414.215 552.774 417.125C552.571 418.081 549.646 424.481 549.646 424.481C549.534 426.32 549.666 428.165 550.037 429.969C550.761 432.46 553.006 431.012 553.006 431.012L553.73 432.778C554.874 435.674 557.017 432.995 560.666 434.791C564.315 436.587 566.081 434.212 567.486 434.791C568.89 435.37 573.48 433.937 574.349 432.214C575.218 430.49 573.843 422.874 575.146 419.848C576.449 416.821 576.478 410.696 576.478 408.148" fill="#F9F9F7"/>
<path d="M562.157 408.148C561.868 412.796 553.397 414.215 552.774 417.125C552.571 418.081 549.646 424.481 549.646 424.481C549.534 426.32 549.666 428.165 550.037 429.969C550.761 432.46 553.006 431.012 553.006 431.012L553.73 432.778C554.874 435.674 557.017 432.995 560.666 434.791C564.315 436.587 566.081 434.212 567.486 434.791C568.89 435.37 573.48 433.937 574.349 432.214C575.218 430.49 573.842 422.874 575.146 419.848C576.449 416.821 576.478 410.696 576.478 408.148" stroke="#212529" stroke-linecap="round" stroke-linejoin="round"/>
<path d="M553.006 431.012C553.006 431.012 553.006 426.335 556.018 424.481L553.006 431.012Z" fill="#F9F9F7"/>
<path d="M553.006 431.012C553.006 431.012 553.006 426.335 556.018 424.481" stroke="#212529" stroke-linecap="round" stroke-linejoin="round"/>
<path d="M365.258 262.74H236.458V289.354H365.258V262.74Z" fill="#6C757D" stroke="#212529" stroke-linecap="round" stroke-linejoin="round"/>
<path d="M365.258 297.332H236.458V323.947H365.258V297.332Z" fill="#6C757D" stroke="#212529" stroke-linecap="round" stroke-linejoin="round"/>
<path d="M365.258 331.925H236.458V358.539H365.258V331.925Z" fill="#6C757D" stroke="#212529" stroke-linecap="round" stroke-linejoin="round"/>
<path d="M365.258 366.518H236.458V393.132H365.258V366.518Z" fill="#6C757D" stroke="#212529" stroke-linecap="round" stroke-linejoin="round"/>
<path d="M365.258 401.111H236.458V427.725H365.258V401.111Z" fill="#6C757D" stroke="#212529" stroke-linecap="round" stroke-linejoin="round"/>
<path d="M366.359 259.742H263.145C261.562 259.742 260.278 261.026 260.278 262.609V289.455C260.278 291.039 261.562 292.322 263.145 292.322H366.359C367.942 292.322 369.226 291.039 369.226 289.455V262.609C369.226 261.026 367.942 259.742 366.359 259.742Z" fill="#E9ECEF" stroke="#212529" stroke-linecap="round" stroke-linejoin="round"/>
<path d="M366.359 294.335H263.145C261.562 294.335 260.278 295.619 260.278 297.202V324.048C260.278 325.631 261.562 326.915 263.145 326.915H366.359C367.942 326.915 369.226 325.631 369.226 324.048V297.202C369.226 295.619 367.942 294.335 366.359 294.335Z" fill="#E9ECEF" stroke="#212529" stroke-linecap="round" stroke-linejoin="round"/>
<path d="M366.359 328.942H263.145C261.562 328.942 260.278 330.226 260.278 331.809V358.655C260.278 360.239 261.562 361.522 263.145 361.522H366.359C367.942 361.522 369.226 360.239 369.226 358.655V331.809C369.226 330.226 367.942 328.942 366.359 328.942Z" fill="#E9ECEF" stroke="#212529" stroke-linecap="round" stroke-linejoin="round"/>
<path d="M366.359 363.535H263.145C261.562 363.535 260.278 364.819 260.278 366.402V393.248C260.278 394.831 261.562 396.115 263.145 396.115H366.359C367.942 396.115 369.226 394.831 369.226 393.248V366.402C369.226 364.819 367.942 363.535 366.359 363.535Z" fill="#E9ECEF" stroke="#212529" stroke-linecap="round" stroke-linejoin="round"/>
<path d="M366.359 398.128H263.145C261.562 398.128 260.278 399.411 260.278 400.995V427.841C260.278 429.424 261.562 430.708 263.145 430.708H366.359C367.942 430.708 369.226 429.424 369.226 427.841V400.995C369.226 399.411 367.942 398.128 366.359 398.128Z" fill="#E9ECEF" stroke="#212529" stroke-linecap="round" stroke-linejoin="round"/>
<path d="M379.492 281.144C379.492 281.144 372.02 277.799 372.252 272.456C372.192 271.091 371.847 269.754 371.238 268.532C371.238 268.532 363.998 266.809 365.012 263.927L375.032 264.984C378.327 266.995 380.851 270.055 382.2 273.672" fill="#F9F9F7"/>
<path d="M379.492 281.144C379.492 281.144 372.02 277.799 372.252 272.456C372.192 271.091 371.847 269.754 371.238 268.532C371.238 268.532 363.998 266.809 365.012 263.927L375.032 264.984C378.327 266.995 380.851 270.055 382.2 273.672" stroke="#212529" stroke-linecap="round" stroke-linejoin="round"/>
<path d="M251.054 259.105H99.188V640.508H251.054V259.105Z" fill="#6C757D" stroke="#212529" stroke-linecap="round" stroke-linejoin="round"/>
<path d="M198.579 259.757H95.3653C93.7819 259.757 92.4983 261.04 92.4983 262.624V289.47C92.4983 291.053 93.7819 292.337 95.3653 292.337H198.579C200.162 292.337 201.446 291.053 201.446 289.47V262.624C201.446 261.04 200.162 259.757 198.579 259.757Z" fill="#6C757D" stroke="#212529" stroke-linecap="round" stroke-linejoin="round"/>
<path d="M254.862 259.757H151.649C150.066 259.757 148.782 261.04 148.782 262.624V289.47C148.782 291.053 150.066 292.337 151.649 292.337H254.862C256.446 292.337 257.73 291.053 257.73 289.47V262.624C257.73 261.04 256.446 259.757 254.862 259.757Z" fill="#E9ECEF" stroke="#212529" stroke-linecap="round" stroke-linejoin="round"/>
<path d="M151.664 287.472V264.593C151.664 264.071 151.871 263.57 152.24 263.201C152.61 262.831 153.111 262.624 153.633 262.624H252.864C253.124 262.622 253.382 262.671 253.622 262.77C253.863 262.868 254.082 263.012 254.266 263.195C254.451 263.379 254.597 263.596 254.697 263.836C254.797 264.076 254.848 264.333 254.848 264.593V287.443C254.848 287.965 254.641 288.466 254.271 288.835C253.902 289.204 253.401 289.412 252.879 289.412H153.633C153.116 289.412 152.619 289.208 152.251 288.845C151.882 288.482 151.671 287.989 151.664 287.472Z" fill="#212529"/>
<path d="M214.42 278.885H160.004C158.948 278.885 158.093 279.741 158.093 280.796V286.328C158.093 287.383 158.948 288.239 160.004 288.239H214.42C215.475 288.239 216.331 287.383 216.331 286.328V280.796C216.331 279.741 215.475 278.885 214.42 278.885Z" fill="#6489D1" stroke="#212529" stroke-linecap="round" stroke-linejoin="round"/>
<path d="M225.816 268.575H171.4C170.344 268.575 169.488 269.431 169.488 270.486V276.018C169.488 277.073 170.344 277.929 171.4 277.929H225.816C226.871 277.929 227.727 277.073 227.727 276.018V270.486C227.727 269.431 226.871 268.575 225.816 268.575Z" fill="#6489D1" stroke="#212529" stroke-linecap="round" stroke-linejoin="round"/>
<path d="M198.579 432.735H95.3653C93.7819 432.735 92.4983 434.018 92.4983 435.602V462.448C92.4983 464.031 93.7819 465.315 95.3653 465.315H198.579C200.162 465.315 201.446 464.031 201.446 462.448V435.602C201.446 434.018 200.162 432.735 198.579 432.735Z" fill="#6C757D" stroke="#212529" stroke-linecap="round" stroke-linejoin="round"/>
<path d="M254.862 432.735H151.649C150.066 432.735 148.782 434.018 148.782 435.602V462.448C148.782 464.031 150.066 465.315 151.649 465.315H254.862C256.446 465.315 257.73 464.031 257.73 462.448V435.602C257.73 434.018 256.446 432.735 254.862 432.735Z" fill="#E9ECEF" stroke="#212529" stroke-linecap="round" stroke-linejoin="round"/>
<path d="M227.727 446.433H163.059V451.602H227.727V446.433Z" fill="#6C757D" stroke="#212529" stroke-linecap="round" stroke-linejoin="round"/>
<path d="M239.079 449.025C239.079 449.543 238.926 450.05 238.638 450.481C238.35 450.912 237.94 451.248 237.461 451.446C236.982 451.645 236.455 451.697 235.947 451.595C235.439 451.494 234.972 451.245 234.605 450.878C234.239 450.512 233.989 450.045 233.888 449.536C233.787 449.028 233.839 448.501 234.037 448.022C234.235 447.543 234.571 447.134 235.002 446.846C235.433 446.558 235.94 446.404 236.458 446.404C237.154 446.404 237.82 446.68 238.312 447.172C238.803 447.663 239.079 448.33 239.079 449.025Z" fill="#6489D1" stroke="#212529" stroke-linecap="round" stroke-linejoin="round"/>
<path d="M248.404 449.025C248.404 449.543 248.251 450.05 247.963 450.481C247.675 450.912 247.265 451.248 246.787 451.446C246.308 451.645 245.781 451.697 245.272 451.595C244.764 451.494 244.297 451.245 243.93 450.878C243.564 450.512 243.314 450.045 243.213 449.536C243.112 449.028 243.164 448.501 243.362 448.022C243.561 447.543 243.897 447.134 244.328 446.846C244.759 446.558 245.265 446.404 245.784 446.404C246.479 446.404 247.145 446.68 247.637 447.172C248.128 447.663 248.404 448.33 248.404 449.025Z" fill="#6C757D" stroke="#212529" stroke-linecap="round" stroke-linejoin="round"/>
<path d="M203.256 448.156H165.42V449.879H203.256V448.156Z" fill="#6489D1"/>
<path d="M198.579 467.328H95.3653C93.7819 467.328 92.4983 468.611 92.4983 470.195V497.041C92.4983 498.624 93.7819 499.908 95.3653 499.908H198.579C200.162 499.908 201.446 498.624 201.446 497.041V470.195C201.446 468.611 200.162 467.328 198.579 467.328Z" fill="#6C757D" stroke="#212529" stroke-linecap="round" stroke-linejoin="round"/>
<path d="M254.862 467.328H151.649C150.066 467.328 148.782 468.611 148.782 470.195V497.041C148.782 498.624 150.066 499.908 151.649 499.908H254.862C256.446 499.908 257.73 498.624 257.73 497.041V470.195C257.73 468.611 256.446 467.328 254.862 467.328Z" fill="#E9ECEF" stroke="#212529" stroke-linecap="round" stroke-linejoin="round"/>
<path d="M227.727 481.026H163.059V486.195H227.727V481.026Z" fill="#6C757D" stroke="#212529" stroke-linecap="round" stroke-linejoin="round"/>
<path d="M236.458 486.238C237.906 486.238 239.079 485.065 239.079 483.618C239.079 482.17 237.906 480.997 236.458 480.997C235.011 480.997 233.838 482.17 233.838 483.618C233.838 485.065 235.011 486.238 236.458 486.238Z" fill="#6489D1" stroke="#212529" stroke-linecap="round" stroke-linejoin="round"/>
<path d="M248.404 483.632C248.404 484.15 248.251 484.657 247.963 485.088C247.675 485.519 247.265 485.855 246.787 486.053C246.308 486.252 245.781 486.304 245.272 486.203C244.764 486.101 244.297 485.852 243.93 485.485C243.564 485.119 243.314 484.652 243.213 484.143C243.112 483.635 243.164 483.108 243.362 482.629C243.561 482.15 243.897 481.741 244.328 481.453C244.759 481.165 245.265 481.011 245.784 481.011C246.128 481.009 246.47 481.076 246.789 481.207C247.108 481.338 247.397 481.531 247.641 481.775C247.885 482.018 248.078 482.308 248.209 482.627C248.34 482.946 248.406 483.287 248.404 483.632Z" fill="#6C757D" stroke="#212529" stroke-linecap="round" stroke-linejoin="round"/>
<path d="M203.256 482.763H165.42V484.472H203.256V482.763Z" fill="#6489D1"/>
<path d="M198.579 501.92H95.3653C93.7819 501.92 92.4983 503.204 92.4983 504.787V531.633C92.4983 533.217 93.7819 534.5 95.3653 534.5H198.579C200.162 534.5 201.446 533.217 201.446 531.633V504.787C201.446 503.204 200.162 501.92 198.579 501.92Z" fill="#6C757D" stroke="#212529" stroke-linecap="round" stroke-linejoin="round"/>
<path d="M254.862 501.92H151.649C150.066 501.92 148.782 503.204 148.782 504.787V531.633C148.782 533.217 150.066 534.5 151.649 534.5H254.862C256.446 534.5 257.73 533.217 257.73 531.633V504.787C257.73 503.204 256.446 501.92 254.862 501.92Z" fill="#E9ECEF" stroke="#212529" stroke-linecap="round" stroke-linejoin="round"/>
<path d="M227.727 515.618H163.059V520.788H227.727V515.618Z" fill="#6C757D" stroke="#212529" stroke-linecap="round" stroke-linejoin="round"/>
<path d="M236.458 520.831C237.906 520.831 239.079 519.658 239.079 518.21C239.079 516.763 237.906 515.589 236.458 515.589C235.011 515.589 233.838 516.763 233.838 518.21C233.838 519.658 235.011 520.831 236.458 520.831Z" fill="#6489D1" stroke="#212529" stroke-linecap="round" stroke-linejoin="round"/>
<path d="M248.404 518.21C248.407 518.729 248.256 519.237 247.97 519.67C247.684 520.103 247.275 520.441 246.797 520.642C246.318 520.843 245.791 520.897 245.281 520.797C244.772 520.698 244.303 520.449 243.935 520.083C243.568 519.717 243.316 519.25 243.214 518.741C243.112 518.233 243.163 517.705 243.361 517.225C243.559 516.745 243.895 516.335 244.326 516.047C244.757 515.758 245.265 515.604 245.784 515.604C246.476 515.604 247.141 515.878 247.632 516.366C248.123 516.855 248.401 517.518 248.404 518.21Z" fill="#6C757D" stroke="#212529" stroke-linecap="round" stroke-linejoin="round"/>
<path d="M203.256 517.356H165.42V519.065H203.256V517.356Z" fill="#6489D1"/>
<path d="M198.579 536.513H95.3653C93.7819 536.513 92.4983 537.797 92.4983 539.38V566.226C92.4983 567.809 93.7819 569.093 95.3653 569.093H198.579C200.162 569.093 201.446 567.809 201.446 566.226V539.38C201.446 537.797 200.162 536.513 198.579 536.513Z" fill="#6C757D" stroke="#212529" stroke-linecap="round" stroke-linejoin="round"/>
<path d="M254.862 536.513H151.649C150.066 536.513 148.782 537.797 148.782 539.38V566.226C148.782 567.809 150.066 569.093 151.649 569.093H254.862C256.446 569.093 257.73 567.809 257.73 566.226V539.38C257.73 537.797 256.446 536.513 254.862 536.513Z" fill="#E9ECEF" stroke="#212529" stroke-linecap="round" stroke-linejoin="round"/>
<path d="M227.727 550.211H163.059V555.381H227.727V550.211Z" fill="#6C757D" stroke="#212529" stroke-linecap="round" stroke-linejoin="round"/>
<path d="M239.079 552.803C239.082 553.322 238.931 553.83 238.645 554.263C238.358 554.696 237.95 555.034 237.472 555.235C236.993 555.435 236.465 555.489 235.956 555.39C235.447 555.29 234.978 555.042 234.61 554.676C234.242 554.31 233.991 553.843 233.889 553.334C233.787 552.825 233.838 552.298 234.036 551.818C234.234 551.338 234.57 550.928 235.001 550.639C235.432 550.351 235.94 550.197 236.458 550.197C237.151 550.197 237.816 550.471 238.307 550.959C238.798 551.448 239.076 552.11 239.079 552.803Z" fill="#6489D1" stroke="#212529" stroke-linecap="round" stroke-linejoin="round"/>
<path d="M248.404 552.803C248.407 553.322 248.256 553.83 247.97 554.263C247.684 554.696 247.275 555.034 246.797 555.235C246.318 555.435 245.791 555.489 245.281 555.39C244.772 555.29 244.303 555.042 243.935 554.676C243.568 554.31 243.316 553.843 243.214 553.334C243.112 552.825 243.163 552.298 243.361 551.818C243.559 551.338 243.895 550.928 244.326 550.639C244.757 550.351 245.265 550.197 245.784 550.197C246.476 550.197 247.141 550.471 247.632 550.959C248.123 551.448 248.401 552.11 248.404 552.803Z" fill="#6C757D" stroke="#212529" stroke-linecap="round" stroke-linejoin="round"/>
<path d="M203.256 551.949H165.42V553.672H203.256V551.949Z" fill="#6489D1"/>
<path d="M198.579 571.106H95.3653C93.7819 571.106 92.4983 572.389 92.4983 573.973V600.819C92.4983 602.402 93.7819 603.686 95.3653 603.686H198.579C200.162 603.686 201.446 602.402 201.446 600.819V573.973C201.446 572.389 200.162 571.106 198.579 571.106Z" fill="#6C757D" stroke="#212529" stroke-linecap="round" stroke-linejoin="round"/>
<path d="M254.862 571.106H151.649C150.066 571.106 148.782 572.389 148.782 573.973V600.819C148.782 602.402 150.066 603.686 151.649 603.686H254.862C256.446 603.686 257.73 602.402 257.73 600.819V573.973C257.73 572.389 256.446 571.106 254.862 571.106Z" fill="#E9ECEF" stroke="#212529" stroke-linecap="round" stroke-linejoin="round"/>
<path d="M227.727 584.818H163.059V589.988H227.727V584.818Z" fill="#6C757D" stroke="#212529" stroke-linecap="round" stroke-linejoin="round"/>
<path d="M236.458 590.017C237.906 590.017 239.079 588.843 239.079 587.396C239.079 585.948 237.906 584.775 236.458 584.775C235.011 584.775 233.838 585.948 233.838 587.396C233.838 588.843 235.011 590.017 236.458 590.017Z" fill="#6489D1" stroke="#212529" stroke-linecap="round" stroke-linejoin="round"/>
<path d="M248.404 587.396C248.407 587.915 248.256 588.423 247.97 588.856C247.684 589.289 247.275 589.627 246.797 589.827C246.318 590.028 245.791 590.082 245.281 589.982C244.772 589.883 244.303 589.635 243.935 589.269C243.568 588.903 243.316 588.436 243.214 587.927C243.112 587.418 243.163 586.89 243.361 586.411C243.559 585.931 243.895 585.521 244.326 585.232C244.757 584.943 245.265 584.789 245.784 584.789C246.476 584.789 247.141 585.063 247.632 585.552C248.123 586.04 248.401 586.703 248.404 587.396Z" fill="#6C757D" stroke="#212529" stroke-linecap="round" stroke-linejoin="round"/>
<path d="M203.256 586.542H165.42V588.25H203.256V586.542Z" fill="#6489D1"/>
<path d="M198.579 605.698H95.3653C93.7819 605.698 92.4983 606.982 92.4983 608.566V635.411C92.4983 636.995 93.7819 638.278 95.3653 638.278H198.579C200.162 638.278 201.446 636.995 201.446 635.411V608.566C201.446 606.982 200.162 605.698 198.579 605.698Z" fill="#6C757D" stroke="#212529" stroke-linecap="round" stroke-linejoin="round"/>
<path d="M254.862 605.698H151.649C150.066 605.698 148.782 606.982 148.782 608.566V635.411C148.782 636.995 150.066 638.278 151.649 638.278H254.862C256.446 638.278 257.73 636.995 257.73 635.411V608.566C257.73 606.982 256.446 605.698 254.862 605.698Z" fill="#E9ECEF" stroke="#212529" stroke-linecap="round" stroke-linejoin="round"/>
<path d="M227.727 619.411H163.059V624.58H227.727V619.411Z" fill="#6C757D" stroke="#212529" stroke-linecap="round" stroke-linejoin="round"/>
<path d="M236.458 624.624C237.906 624.624 239.079 623.45 239.079 622.003C239.079 620.555 237.906 619.382 236.458 619.382C235.011 619.382 233.838 620.555 233.838 622.003C233.838 623.45 235.011 624.624 236.458 624.624Z" fill="#6489D1" stroke="#212529" stroke-linecap="round" stroke-linejoin="round"/>
<path d="M248.404 622.003C248.404 622.521 248.251 623.028 247.963 623.459C247.675 623.89 247.265 624.226 246.787 624.424C246.308 624.623 245.781 624.675 245.272 624.574C244.764 624.472 244.297 624.223 243.93 623.856C243.564 623.49 243.314 623.023 243.213 622.514C243.112 622.006 243.164 621.479 243.362 621C243.561 620.521 243.897 620.112 244.328 619.824C244.759 619.536 245.265 619.382 245.784 619.382C246.479 619.382 247.145 619.658 247.637 620.15C248.128 620.641 248.404 621.308 248.404 622.003Z" fill="#6C757D" stroke="#212529" stroke-linecap="round" stroke-linejoin="round"/>
<path d="M203.256 621.134H165.42V622.843H203.256V621.134Z" fill="#6489D1"/>
<path d="M198.579 398.128H95.3653C93.7819 398.128 92.4983 399.411 92.4983 400.995V427.841C92.4983 429.424 93.7819 430.708 95.3653 430.708H198.579C200.162 430.708 201.446 429.424 201.446 427.841V400.995C201.446 399.411 200.162 398.128 198.579 398.128Z" fill="#6C757D" stroke="#212529" stroke-linecap="round" stroke-linejoin="round"/>
<path d="M254.862 398.128H151.649C150.066 398.128 148.782 399.411 148.782 400.995V427.841C148.782 429.424 150.066 430.708 151.649 430.708H254.862C256.446 430.708 257.73 429.424 257.73 427.841V400.995C257.73 399.411 256.446 398.128 254.862 398.128Z" fill="#E9ECEF" stroke="#212529" stroke-linecap="round" stroke-linejoin="round"/>
<path d="M151.664 425.842V402.978C151.664 402.456 151.871 401.955 152.24 401.586C152.61 401.217 153.111 401.009 153.633 401.009H252.864C253.39 401.009 253.895 401.218 254.267 401.59C254.639 401.962 254.848 402.467 254.848 402.993V425.842C254.848 426.365 254.641 426.866 254.271 427.235C253.902 427.604 253.401 427.812 252.879 427.812H153.633C153.111 427.812 152.61 427.604 152.24 427.235C151.871 426.866 151.664 426.365 151.664 425.842Z" fill="#212529"/>
<path d="M214.42 417.256H160.004C158.948 417.256 158.093 418.111 158.093 419.167V424.698C158.093 425.754 158.948 426.61 160.004 426.61H214.42C215.475 426.61 216.331 425.754 216.331 424.698V419.167C216.331 418.111 215.475 417.256 214.42 417.256Z" fill="#6489D1" stroke="#212529" stroke-linecap="round" stroke-linejoin="round"/>
<path d="M246.58 417.256H221.124C220.069 417.256 219.213 418.111 219.213 419.167V424.698C219.213 425.754 220.069 426.61 221.124 426.61H246.58C247.636 426.61 248.491 425.754 248.491 424.698V419.167C248.491 418.111 247.636 417.256 246.58 417.256Z" fill="#6489D1" stroke="#212529" stroke-linecap="round" stroke-linejoin="round"/>
<path d="M191.73 407.829H166.274C165.218 407.829 164.363 408.685 164.363 409.741V415.272C164.363 416.328 165.218 417.183 166.274 417.183H191.73C192.785 417.183 193.641 416.328 193.641 415.272V409.741C193.641 408.685 192.785 407.829 191.73 407.829Z" fill="#6489D1" stroke="#212529" stroke-linecap="round" stroke-linejoin="round"/>
<path d="M198.579 363.535H95.3653C93.7819 363.535 92.4983 364.819 92.4983 366.402V393.248C92.4983 394.831 93.7819 396.115 95.3653 396.115H198.579C200.162 396.115 201.446 394.831 201.446 393.248V366.402C201.446 364.819 200.162 363.535 198.579 363.535Z" fill="#6C757D" stroke="#212529" stroke-linecap="round" stroke-linejoin="round"/>
<path d="M254.862 363.535H151.649C150.066 363.535 148.782 364.819 148.782 366.402V393.248C148.782 394.831 150.066 396.115 151.649 396.115H254.862C256.446 396.115 257.73 394.831 257.73 393.248V366.402C257.73 364.819 256.446 363.535 254.862 363.535Z" fill="#E9ECEF" stroke="#212529" stroke-linecap="round" stroke-linejoin="round"/>
<path d="M151.664 391.25V368.386C151.664 367.863 151.871 367.363 152.24 366.993C152.61 366.624 153.111 366.417 153.633 366.417H252.864C253.39 366.417 253.895 366.626 254.267 366.998C254.639 367.37 254.848 367.874 254.848 368.4V391.235C254.85 391.495 254.8 391.753 254.702 391.993C254.604 392.234 254.459 392.453 254.276 392.637C254.093 392.821 253.876 392.968 253.636 393.068C253.396 393.168 253.139 393.219 252.879 393.219H153.633C153.111 393.219 152.61 393.011 152.24 392.642C151.871 392.273 151.664 391.772 151.664 391.25Z" fill="#212529"/>
<path d="M215.303 382.663H189.847C188.792 382.663 187.936 383.519 187.936 384.574V390.106C187.936 391.161 188.792 392.017 189.847 392.017H215.303C216.359 392.017 217.214 391.161 217.214 390.106V384.574C217.214 383.519 216.359 382.663 215.303 382.663Z" fill="#6489D1" stroke="#212529" stroke-linecap="round" stroke-linejoin="round"/>
<path d="M246.58 382.663H221.124C220.069 382.663 219.213 383.519 219.213 384.574V390.106C219.213 391.161 220.069 392.017 221.124 392.017H246.58C247.636 392.017 248.491 391.161 248.491 390.106V384.574C248.491 383.519 247.636 382.663 246.58 382.663Z" fill="#6489D1" stroke="#212529" stroke-linecap="round" stroke-linejoin="round"/>
<path d="M184.577 382.663H159.121C158.065 382.663 157.209 383.519 157.209 384.574V390.106C157.209 391.161 158.065 392.017 159.121 392.017H184.577C185.632 392.017 186.488 391.161 186.488 390.106V384.574C186.488 383.519 185.632 382.663 184.577 382.663Z" fill="#6489D1" stroke="#212529" stroke-linecap="round" stroke-linejoin="round"/>
<path d="M207.484 372.643H182.028C180.972 372.643 180.117 373.499 180.117 374.554V380.086C180.117 381.141 180.972 381.997 182.028 381.997H207.484C208.54 381.997 209.395 381.141 209.395 380.086V374.554C209.395 373.499 208.54 372.643 207.484 372.643Z" fill="#6489D1" stroke="#212529" stroke-linecap="round" stroke-linejoin="round"/>
<path d="M198.579 328.942H95.3653C93.7819 328.942 92.4983 330.226 92.4983 331.809V358.655C92.4983 360.239 93.7819 361.522 95.3653 361.522H198.579C200.162 361.522 201.446 360.239 201.446 358.655V331.809C201.446 330.226 200.162 328.942 198.579 328.942Z" fill="#6C757D" stroke="#212529" stroke-linecap="round" stroke-linejoin="round"/>
<path d="M254.862 328.942H151.649C150.066 328.942 148.782 330.226 148.782 331.809V358.655C148.782 360.239 150.066 361.522 151.649 361.522H254.862C256.446 361.522 257.73 360.239 257.73 358.655V331.809C257.73 330.226 256.446 328.942 254.862 328.942Z" fill="#E9ECEF" stroke="#212529" stroke-linecap="round" stroke-linejoin="round"/>
<path d="M151.664 356.657V333.793C151.662 333.533 151.711 333.276 151.809 333.035C151.907 332.794 152.052 332.576 152.235 332.391C152.418 332.207 152.636 332.06 152.876 331.96C153.116 331.861 153.373 331.809 153.633 331.809H252.864C253.39 331.809 253.895 332.018 254.267 332.39C254.639 332.762 254.848 333.267 254.848 333.793V356.628C254.85 356.888 254.8 357.145 254.702 357.386C254.604 357.627 254.459 357.845 254.276 358.03C254.093 358.214 253.876 358.361 253.636 358.46C253.396 358.56 253.139 358.612 252.879 358.612H153.633C153.113 358.612 152.614 358.406 152.245 358.04C151.876 357.674 151.667 357.177 151.664 356.657Z" fill="#212529"/>
<path d="M233.244 348.07H178.828C177.772 348.07 176.917 348.926 176.917 349.982V355.513C176.917 356.569 177.772 357.424 178.828 357.424H233.244C234.3 357.424 235.155 356.569 235.155 355.513V349.982C235.155 348.926 234.3 348.07 233.244 348.07Z" fill="#6489D1" stroke="#212529" stroke-linecap="round" stroke-linejoin="round"/>
<path d="M225.888 347.115H171.4C170.893 347.115 170.407 346.913 170.048 346.555C169.69 346.196 169.488 345.71 169.488 345.203V345.464C169.488 344.957 169.69 344.471 170.048 344.112C170.407 343.754 170.893 343.552 171.4 343.552H225.888C226.392 343.556 226.875 343.759 227.23 344.117C227.586 344.475 227.785 344.959 227.785 345.464V345.203C227.785 345.708 227.586 346.192 227.23 346.55C226.875 346.908 226.392 347.111 225.888 347.115Z" fill="#6489D1" stroke="#212529" stroke-linecap="round" stroke-linejoin="round"/>
<path d="M198.579 294.349H95.3653C93.7819 294.349 92.4983 295.633 92.4983 297.217V324.062C92.4983 325.646 93.7819 326.929 95.3653 326.929H198.579C200.162 326.929 201.446 325.646 201.446 324.062V297.217C201.446 295.633 200.162 294.349 198.579 294.349Z" fill="#6C757D" stroke="#212529" stroke-linecap="round" stroke-linejoin="round"/>
<path d="M254.862 294.349H151.649C150.066 294.349 148.782 295.633 148.782 297.217V324.062C148.782 325.646 150.066 326.929 151.649 326.929H254.862C256.446 326.929 257.73 325.646 257.73 324.062V297.217C257.73 295.633 256.446 294.349 254.862 294.349Z" fill="#E9ECEF" stroke="#212529" stroke-linecap="round" stroke-linejoin="round"/>
<path d="M151.664 322.064V299.2C151.662 298.941 151.711 298.683 151.809 298.442C151.907 298.202 152.052 297.983 152.235 297.799C152.418 297.614 152.636 297.468 152.876 297.368C153.116 297.268 153.373 297.217 153.633 297.217H252.864C253.124 297.215 253.382 297.264 253.622 297.362C253.863 297.46 254.082 297.605 254.266 297.788C254.45 297.971 254.597 298.189 254.697 298.429C254.797 298.669 254.848 298.926 254.848 299.186V322.035C254.848 322.558 254.641 323.059 254.271 323.428C253.902 323.797 253.401 324.005 252.879 324.005H153.633C153.115 324.005 152.619 323.801 152.25 323.438C151.882 323.075 151.671 322.582 151.664 322.064Z" fill="#212529"/>
<path d="M243.38 313.478H188.964C187.908 313.478 187.053 314.333 187.053 315.389V320.92C187.053 321.976 187.908 322.832 188.964 322.832H243.38C244.436 322.832 245.291 321.976 245.291 320.92V315.389C245.291 314.333 244.436 313.478 243.38 313.478Z" fill="#6489D1" stroke="#212529" stroke-linecap="round" stroke-linejoin="round"/>
<path d="M225.816 303.168H200.36C199.304 303.168 198.448 304.024 198.448 305.079V310.611C198.448 311.666 199.304 312.522 200.36 312.522H225.816C226.871 312.522 227.727 311.666 227.727 310.611V305.079C227.727 304.024 226.871 303.168 225.816 303.168Z" fill="#6489D1" stroke="#212529" stroke-linecap="round" stroke-linejoin="round"/>
<path d="M98.6957 280.405V288.239" stroke="#212529" stroke-linecap="round" stroke-linejoin="round"/>
<path d="M101.186 280.405V288.239" stroke="#212529" stroke-linecap="round" stroke-linejoin="round"/>
<path d="M103.662 280.405V288.239" stroke="#212529" stroke-linecap="round" stroke-linejoin="round"/>
<path d="M106.153 280.405V288.239" stroke="#212529" stroke-linecap="round" stroke-linejoin="round"/>
<path d="M108.629 280.405V288.239" stroke="#212529" stroke-linecap="round" stroke-linejoin="round"/>
<path d="M98.6957 626.477V634.311" stroke="#212529" stroke-linecap="round" stroke-linejoin="round"/>
<path d="M101.186 626.477V634.311" stroke="#212529" stroke-linecap="round" stroke-linejoin="round"/>
<path d="M103.662 626.477V634.311" stroke="#212529" stroke-linecap="round" stroke-linejoin="round"/>
<path d="M106.153 626.477V634.311" stroke="#212529" stroke-linecap="round" stroke-linejoin="round"/>
<path d="M108.629 626.477V634.311" stroke="#212529" stroke-linecap="round" stroke-linejoin="round"/>
<path d="M98.6957 591.87V599.704" stroke="#212529" stroke-linecap="round" stroke-linejoin="round"/>
<path d="M101.186 591.87V599.704" stroke="#212529" stroke-linecap="round" stroke-linejoin="round"/>
<path d="M103.662 591.87V599.704" stroke="#212529" stroke-linecap="round" stroke-linejoin="round"/>
<path d="M106.153 591.87V599.704" stroke="#212529" stroke-linecap="round" stroke-linejoin="round"/>
<path d="M108.629 591.87V599.704" stroke="#212529" stroke-linecap="round" stroke-linejoin="round"/>
<path d="M98.6957 557.263V565.097" stroke="#212529" stroke-linecap="round" stroke-linejoin="round"/>
<path d="M101.186 557.263V565.097" stroke="#212529" stroke-linecap="round" stroke-linejoin="round"/>
<path d="M103.662 557.263V565.097" stroke="#212529" stroke-linecap="round" stroke-linejoin="round"/>
<path d="M106.153 557.263V565.097" stroke="#212529" stroke-linecap="round" stroke-linejoin="round"/>
<path d="M108.629 557.263V565.097" stroke="#212529" stroke-linecap="round" stroke-linejoin="round"/>
<path d="M98.6957 522.656V530.489" stroke="#212529" stroke-linecap="round" stroke-linejoin="round"/>
<path d="M101.186 522.656V530.489" stroke="#212529" stroke-linecap="round" stroke-linejoin="round"/>
<path d="M103.662 522.656V530.489" stroke="#212529" stroke-linecap="round" stroke-linejoin="round"/>
<path d="M106.153 522.656V530.489" stroke="#212529" stroke-linecap="round" stroke-linejoin="round"/>
<path d="M108.629 522.656V530.489" stroke="#212529" stroke-linecap="round" stroke-linejoin="round"/>
<path d="M98.6957 488.048V495.882" stroke="#212529" stroke-linecap="round" stroke-linejoin="round"/>
<path d="M101.186 488.048V495.882" stroke="#212529" stroke-linecap="round" stroke-linejoin="round"/>
<path d="M103.662 488.048V495.882" stroke="#212529" stroke-linecap="round" stroke-linejoin="round"/>
<path d="M106.153 488.048V495.882" stroke="#212529" stroke-linecap="round" stroke-linejoin="round"/>
<path d="M108.629 488.048V495.882" stroke="#212529" stroke-linecap="round" stroke-linejoin="round"/>
<path d="M98.6957 453.441V461.275" stroke="#212529" stroke-linecap="round" stroke-linejoin="round"/>
<path d="M101.186 453.441V461.275" stroke="#212529" stroke-linecap="round" stroke-linejoin="round"/>
<path d="M103.662 453.441V461.275" stroke="#212529" stroke-linecap="round" stroke-linejoin="round"/>
<path d="M106.153 453.441V461.275" stroke="#212529" stroke-linecap="round" stroke-linejoin="round"/>
<path d="M108.629 453.441V461.275" stroke="#212529" stroke-linecap="round" stroke-linejoin="round"/>
<path d="M98.6957 418.834V426.668" stroke="#212529" stroke-linecap="round" stroke-linejoin="round"/>
<path d="M101.186 418.834V426.668" stroke="#212529" stroke-linecap="round" stroke-linejoin="round"/>
<path d="M103.662 418.834V426.668" stroke="#212529" stroke-linecap="round" stroke-linejoin="round"/>
<path d="M106.153 418.834V426.668" stroke="#212529" stroke-linecap="round" stroke-linejoin="round"/>
<path d="M108.629 418.834V426.668" stroke="#212529" stroke-linecap="round" stroke-linejoin="round"/>
<path d="M98.6957 384.227V392.06" stroke="#212529" stroke-linecap="round" stroke-linejoin="round"/>
<path d="M101.186 384.227V392.06" stroke="#212529" stroke-linecap="round" stroke-linejoin="round"/>
<path d="M103.662 384.227V392.06" stroke="#212529" stroke-linecap="round" stroke-linejoin="round"/>
<path d="M106.153 384.227V392.06" stroke="#212529" stroke-linecap="round" stroke-linejoin="round"/>
<path d="M108.629 384.227V392.06" stroke="#212529" stroke-linecap="round" stroke-linejoin="round"/>
<path d="M98.6957 349.62V357.453" stroke="#212529" stroke-linecap="round" stroke-linejoin="round"/>
<path d="M101.186 349.62V357.453" stroke="#212529" stroke-linecap="round" stroke-linejoin="round"/>
<path d="M103.662 349.62V357.453" stroke="#212529" stroke-linecap="round" stroke-linejoin="round"/>
<path d="M106.153 349.62V357.453" stroke="#212529" stroke-linecap="round" stroke-linejoin="round"/>
<path d="M108.629 349.62V357.453" stroke="#212529" stroke-linecap="round" stroke-linejoin="round"/>
<path d="M98.6957 315.012V322.846" stroke="#212529" stroke-linecap="round" stroke-linejoin="round"/>
<path d="M101.186 315.012V322.846" stroke="#212529" stroke-linecap="round" stroke-linejoin="round"/>
<path d="M103.662 315.012V322.846" stroke="#212529" stroke-linecap="round" stroke-linejoin="round"/>
<path d="M106.153 315.012V322.846" stroke="#212529" stroke-linecap="round" stroke-linejoin="round"/>
<path d="M108.629 315.012V322.846" stroke="#212529" stroke-linecap="round" stroke-linejoin="round"/>
</svg>
